<?xml version="1.0" encoding="utf-8"?>
<!-- Uploaded to: SVG Repo, www.svgrepo.com, Generator: SVG Repo Mixer Tools -->
<svg width="800px" height="800px" viewBox="0 -56 1136 1136" class="icon"  version="1.1" xmlns="http://www.w3.org/2000/svg"><path d="M570.486154 217.796923s-361.156923 72.467692-360.566154 121.107692c0.393846 48.64 0 502.153846 0 502.153847s720.541538 32.098462 740.430769 0c19.889231-32.098462 7.089231-15.950769 7.089231-15.95077l2.363077-486.203077c0 0.196923-117.956923-107.126154-389.316923-121.107692z" fill="#FFFFFF" /><path d="M749.686154 860.947692c-47.261538 0-105.353846-0.590769-177.230769-2.166154-180.578462-3.938462-361.156923-12.012308-362.929231-12.012307l-5.12-0.196923v-5.12c0-4.529231 0.393846-454.104615 0-502.153846-0.196923-14.769231 18.904615-39.778462 184.123077-84.086154 89.403077-24.024615 179.987692-42.141538 180.775384-42.338462l0.59077-0.196923h0.590769c269.981538 13.784615 391.286154 121.501538 392.467692 122.486154l1.772308 1.575385-2.363077 479.310769c0.590769 0.196923 1.181538 0.393846 1.772308 0.787692 5.12 3.544615 2.56 7.68-9.649231 27.175385-3.150769 5.513846-10.043077 16.935385-204.8 16.935384z m-534.449231-24.812307c273.723077 12.012308 709.907692 23.236923 730.584615 2.166153 2.56-4.332308 4.529231-7.483077 6.104616-10.043076l2.363077-486.793847c-15.556923-12.996923-135.483077-105.550769-383.409231-118.350769-8.270769 1.772308-94.523077 19.298462-179.593846 42.141539-163.643077 43.913846-176.246154 67.544615-176.246154 73.64923 0.590769 45.489231 0.196923 447.212308 0.196923 497.23077z" fill="#493B4E" /><path d="M752.246154 867.249231c-47.852308 0-106.732308-0.787692-179.790769-2.363077-180.578462-3.938462-361.156923-12.012308-362.929231-12.012308l-11.224616-0.590769v-11.224615c0-4.529231 0.393846-454.104615 0-502.153847-0.196923-19.495385 22.055385-45.489231 188.849231-90.190769 89.6-24.024615 180.381538-42.338462 181.169231-42.535384l1.378462-0.196924h1.378461c272.344615 13.981538 391.483077 119.729231 396.406154 124.258462l3.938461 3.544615-2.363076 478.523077c8.664615 6.892308 3.544615 14.769231-8.861539 34.855385-1.575385 2.756923-3.544615 5.710769-11.815385 8.467692l-2.953846 3.741539v-2.953846c-19.692308 6.104615-67.544615 10.830769-193.181538 10.830769z m-530.707692-37.021539C486.203077 841.846154 903.876923 852.676923 941.292308 833.772308c1.772308-2.953846 3.150769-5.316923 4.332307-7.286154v-1.181539l2.363077-480.68923c-22.252308-17.526154-140.603077-102.596923-376.713846-115.003077-11.618462 2.363077-92.553846 19.101538-173.686154 40.566154-165.612308 44.110769-175.655385 66.56-176.246154 68.923076 0.590769 43.716923 0.393846 420.824615 0.196924 491.126154z" fill="#493B4E" /><path d="M939.913846 875.52v-11.815385c-28.750769 6.104615-89.009231 8.861538-187.864615 8.861539-50.215385 0-110.867692-0.787692-179.790769-2.363077-172.504615-3.741538-343.827692-11.224615-362.929231-12.012308l-16.541539-0.787692v-16.344615c0-4.135385 0.393846-453.907692 0-502.153847-0.196923-22.646154 23.04-49.821538 192.787693-95.507692 89.993846-24.221538 180.578462-42.338462 181.563077-42.535385l2.166153-0.393846 2.166154 0.196923c274.313846 13.981538 394.830769 121.107692 399.753846 125.636923l5.513847 5.12-2.363077 478.523077c9.452308 9.452308 2.363077 20.676923-9.649231 40.172308-2.166154 3.544615-4.923077 7.089231-13.193846 10.24l-11.618462 15.163077z m-736.295384-28.16l6.104615 0.196923c19.298462 0.787692 190.424615 8.270769 362.929231 12.012308 68.923077 1.575385 129.378462 2.363077 179.593846 2.363077 105.156923 0 167.778462-3.347692 191.803077-10.24l2.756923-0.787693c6.498462-2.166154 7.68-4.135385 9.058461-6.301538 13.193846-21.267692 14.375385-24.615385 10.043077-27.963077l-1.96923-1.575385 2.363076-478.72-2.166153-1.96923c-4.923077-4.529231-122.683077-109.095385-393.255385-122.88h-0.787692l-0.787693 0.196923c-0.984615 0.196923-91.175385 18.313846-180.972307 42.338461-166.006154 44.504615-184.910769 69.907692-184.91077 85.070769 0.393846 48.246154 0 498.018462 0 502.153847l0.196924 6.104615z m550.006153 1.772308c-171.913846 0-413.932308-8.467692-532.283077-13.784616l-5.12-0.196923v-5.12c0-18.116923 0.393846-444.061538 0-490.929231v-0.590769l0.196924-0.590769c1.969231-8.073846 23.433846-31.310769 179.987692-72.861538 82.313846-21.858462 164.824615-38.793846 174.08-40.763077l0.590769-0.196923h0.590769c237.883077 12.406154 358.006154 98.855385 379.667693 115.987692l1.96923 1.575384-2.56 486.006154-0.787692 1.181539c-1.181538 1.969231-2.56 4.332308-4.332308 7.286154l-0.787692 1.378461-1.378461 0.590769c-15.556923 8.270769-90.978462 11.027692-189.833847 11.027693zM226.855385 825.107692c318.227692 13.784615 671.310769 19.889231 710.695384 4.529231 0.984615-1.772308 1.969231-3.150769 2.756923-4.529231l2.363077-477.932307c-25.796923-19.889231-143.163077-100.036923-371.003077-112.246154-11.815385 2.363077-92.356923 19.101538-172.701538 40.369231-149.858462 39.975385-169.944615 61.636923-172.307692 64.984615 0.590769 50.018462 0.196923 433.427692 0.196923 484.824615z" fill="#493B4E" /><path d="M210.313846 400.935385v427.323077s-8.664615 26.190769 52.578462 24.812307c61.243077-1.378462 670.916923 0 670.916923 0s21.858462-4.529231 24.812307-35.052307c2.953846-30.72 0-417.083077 0-417.083077l-354.461538 226.067692-10.24 8.664615-29.144615-1.378461-347.175385-233.353846h-7.286154z" fill="#C9D787" /><path d="M934.203077 858.387692h-0.590769c-6.104615 0-610.264615-1.575385-670.72 0-28.356923 0.590769-46.473846-4.332308-54.35077-14.966154-4.923077-6.695385-4.135385-13.193846-3.544615-15.753846V395.618462h14.178462l1.378461 0.984615 345.796923 232.566154 25.6 1.181538 9.255385-7.876923 362.535384-231.187692v9.649231c0.196923 15.753846 2.953846 387.150769 0 417.673846-3.347692 34.067692-27.963077 39.581538-28.947692 39.778461h-0.590769zM215.630769 406.252308V829.046154l-0.196923 0.787692s-0.984615 3.544615 1.969231 7.286154c3.347692 4.332308 13.587692 11.224615 45.489231 10.436923 59.667692-1.378462 647.286154 0 670.326154 0 2.756923-0.787692 17.92-6.104615 20.086153-30.326154 2.56-27.372308 0.393846-346.978462 0-406.843077L607.310769 631.335385l-11.618461 9.846153-32.689231-1.575384-1.181539-0.787692-345.796923-232.369231h-0.393846z" fill="#493B4E" /><path d="M934.793846 864.689231h-1.181538c-6.104615 0-610.067692-1.575385-670.523077 0-30.72 0.787692-50.412308-4.923077-59.667693-17.526154-5.12-7.089231-5.907692-14.769231-4.726153-20.283077V389.316923h22.44923l347.372308 233.550769 21.267692 0.984616 8.073847-6.695385 372.184615-237.489231 0.196923 21.07077c0.196923 15.753846 2.953846 387.347692 0 418.264615-3.741538 38.793846-32.886154 45.095385-34.067692 45.292308l-1.378462 0.393846z m-713.255384-33.083077c0 0.393846 0.196923 1.181538 0.984615 1.969231 1.772308 1.969231 9.649231 8.467692 39.975385 7.68 59.076923-1.378462 634.683077 0 669.538461 0 2.953846-0.984615 12.996923-6.104615 14.769231-24.418462 2.166154-22.646154 0.984615-256.984615 0.196923-394.830769L611.052308 636.455385l-13.193846 11.224615-37.021539-1.772308-2.756923-1.772307-336.147692-226.264616v412.947693l-0.393846 0.787692z" fill="#493B4E" /><path d="M257.378462 870.006154c-29.341538 0-48.443077-6.498462-58.289231-19.692308-5.12-6.892308-7.286154-15.753846-5.907693-24.024615V384h29.538462l1.378462 0.984615 346.190769 232.763077 17.723077 0.984616 6.892307-5.71077 380.258462-242.60923 0.196923 30.72c0.196923 15.753846 2.953846 387.741538 0 418.855384-4.135385 42.732308-37.021538 49.821538-38.4 50.018462l-2.166154 0.393846h-1.181538c-6.104615 0-610.067692-1.575385-670.326154 0-1.969231-0.393846-3.938462-0.393846-5.907692-0.393846z m-53.366154-475.372308v432.836923l-0.196923 0.590769c-0.393846 1.969231-1.378462 9.058462 3.938461 16.147693 8.073846 11.027692 26.781538 16.147692 55.138462 15.36 60.455385-1.378462 664.615385 0 670.72 0h0.590769l0.590769-0.196923c1.181538-0.196923 26.584615-5.710769 29.932308-40.763077 2.953846-30.523077 0.196923-401.92 0-417.673846v-11.421539L601.009231 621.489231l-9.255385 7.876923-24.812308-1.181539-1.181538-0.787692-346.190769-232.763077h-15.556923zM933.021538 846.769231h-0.984615c-62.424615-0.196923-611.643077-1.378462-669.341538 0-30.72 0.590769-40.96-5.710769-44.307693-9.649231-1.772308-1.969231-2.166154-3.938462-2.166154-5.12v-1.575385l0.59077-0.787692v-421.415385l345.993846 232.566154 33.476923 1.772308 12.012308-10.24 344.024615-219.372308v9.649231c0.196923 37.612308 2.56 367.655385-0.196923 395.421539-1.969231 21.464615-14.572308 27.569231-18.313846 28.947692l-0.787693-0.196923zM456.861538 835.347692c182.350769 0 430.08 0.590769 474.19077 0.59077 2.953846-1.378462 9.058462-5.710769 10.436923-19.692308 1.969231-21.661538 1.181538-247.335385 0.196923-384.590769L614.203077 640.590769l-14.375385 12.406154-40.566154-1.969231-3.938461-2.56-327.876923-220.553846v402.904616c2.363077 1.575385 11.027692 5.907692 35.052308 5.316923 19.889231-0.590769 98.067692-0.787692 194.363076-0.787693z" fill="#493B4E" /><path d="M286.129231 443.864615L571.076923 632.516923s3.150769 18.116923 28.553846 0 284.947692-188.652308 284.947693-188.652308V123.864615s22.252308-12.8-41.156924-14.572307-536.812308 0-536.812307 0-22.252308-7.089231-20.676923 14.572307c1.772308 21.661538 0.196923 320 0.196923 320z" fill="#FFFFFF" /><path d="M581.12 645.907692c-2.166154 0-4.135385-0.393846-6.104615-1.181538-4.923077-1.969231-7.286154-6.104615-8.27077-8.861539l-285.735384-189.243077v-2.953846c0-2.953846 1.575385-298.535385 0-319.606154-0.590769-7.876923 1.575385-13.981538 6.301538-17.526153 7.089231-5.513846 17.329231-3.544615 20.48-2.56 21.661538 0 474.584615-1.575385 536.221539 0 41.156923 0.984615 48.246154 6.892308 49.821538 12.996923 0.984615 3.741538-0.984615 7.286154-3.544615 9.452307v320.393847l-2.363077 1.575384c-2.56 1.772308-259.938462 170.732308-284.750769 188.455385-8.861538 6.104615-15.950769 9.058462-22.055385 9.058461zM291.446154 441.107692l284.553846 188.258462 0.393846 2.166154s0.590769 2.56 2.56 3.347692c1.575385 0.590769 6.498462 1.181538 17.526154-6.695385 24.024615-17.132308 255.015385-168.763077 282.781538-187.076923V120.713846l2.56-1.378461c-3.347692-1.378462-12.603077-3.938462-38.596923-4.726154-62.621538-1.575385-531.889231 0-536.615384 0h-0.787693l-0.787692-0.196923c-1.969231-0.590769-8.467692-1.772308-11.421538 0.590769-1.772308 1.378462-2.56 4.332308-2.166154 8.467692 1.575385 20.676923 0.196923 285.144615 0 317.636923z" fill="#493B4E" /><path d="M581.12 652.209231c-2.953846 0-5.907692-0.590769-8.467692-1.575385-5.316923-2.166154-9.058462-6.301538-11.027693-10.436923l-287.113846-190.030769v-6.301539c0.590769-103.187692 1.181538-302.473846 0-319.212307-0.984615-12.8 4.135385-19.495385 8.664616-23.04 8.861538-6.892308 20.283077-5.12 25.206153-3.938462 30.326154-0.196923 474.584615-1.575385 535.433847 0 38.203077 0.984615 52.775385 5.710769 55.926153 17.723077 1.378462 5.316923-0.393846 10.043077-3.347692 13.587692v321.181539l-5.316923 3.544615c-2.56 1.772308-259.741538 170.732308-284.553846 188.455385-9.649231 6.695385-18.116923 10.043077-25.403077 10.043077zM297.944615 437.76L582.892308 626.215385v2.363077c1.772308-0.590769 5.12-1.969231 10.24-5.513847 23.433846-16.738462 242.215385-160.492308 280.024615-185.501538V123.470769c-5.316923-0.984615-14.375385-1.969231-29.735385-2.363077-62.424615-1.575385-531.692308 0-536.418461 0h-1.772308l-1.772307-0.590769c-1.575385-0.393846-4.135385-0.787692-5.316924-0.393846-0.196923 0.590769-0.196923 1.378462 0 2.953846 1.181538 20.283077 0 270.178462-0.196923 314.683077z" fill="#493B4E" /><path d="M581.12 657.526154c-3.741538 0-7.286154-0.787692-10.436923-1.969231-5.513846-2.166154-10.043077-6.301538-12.996923-11.618461l-288.295385-190.818462v-9.255385c0.590769-102.990769 1.181538-302.276923 0-318.818461-1.181538-14.966154 5.12-23.236923 10.633846-27.569231 10.24-8.073846 23.236923-6.498462 29.144616-5.12 19.889231 0 473.796923-1.575385 535.04 0 36.036923 0.984615 56.516923 4.726154 60.849231 21.661539 1.378462 5.710769 0.393846 11.618462-3.15077 16.738461v322.363077l-7.68 5.12c-2.56 1.772308-259.741538 170.732308-284.553846 188.258462-10.633846 7.483077-20.086154 11.027692-28.553846 11.027692z m-301.292308-210.116923l285.932308 189.243077 0.590769 1.378461c1.181538 2.56 3.741538 6.104615 8.270769 7.876923 7.68 3.150769 16.935385 0.393846 28.75077-8.073846 24.812308-17.723077 282.190769-186.88 284.750769-188.455384l2.953846-1.969231V127.015385l1.181539-1.378462c2.363077-2.756923 3.150769-5.710769 2.363076-8.861538-1.969231-7.483077-11.224615-12.603077-50.806153-13.784616-62.227692-1.575385-530.707692 0-535.433847 0h-0.590769l-0.590769-0.196923c-3.938462-0.984615-13.587692-2.56-20.676923 2.953846-4.923077 3.938462-7.286154 10.24-6.695385 18.51077 1.181538 16.935385 0.590769 216.418462 0 319.606153v3.544616z m297.353846 188.258461l0.196924-6.695384-284.947693-188.455385v-2.953846c0.196923-29.932308 1.378462-293.612308 0-314.289231-0.196923-1.772308 0-3.150769 0.196923-4.529231l0.787693-3.544615 3.544615-0.590769c2.363077-0.393846 5.710769 0 7.68 0.590769l0.984615 0.393846h0.984616c4.726154 0 473.796923-1.575385 536.615384 0 13.193846 0.393846 23.433846 1.181538 30.72 2.56l4.332308 0.787692v321.575385l-2.363077 1.575385c-42.732308 28.16-256.787692 168.96-280.024615 185.304615-4.529231 3.150769-8.467692 5.316923-11.815385 6.301539l-6.892308 1.96923zM303.261538 434.806154l282.19077 186.683077c1.181538-0.787692 2.756923-1.575385 4.52923-2.953846 22.843077-16.344615 230.006154-152.615385 277.858462-183.926154V128c-5.12-0.590769-12.996923-1.378462-24.615385-1.772308-62.621538-1.575385-531.692308 0-536.221538 0h-2.756923l-0.984616-0.196923c1.181538 36.430769 0.196923 269.390769 0 308.775385z" fill="#493B4E" /><path d="M410.387692 217.796923l348.553846 2.363077s53.956923 25.206154 0 51.593846h-348.553846s-41.156923-29.144615 0-53.956923z" fill="#493B4E" /><path d="M760.32 277.070769H408.812308l-1.378462-0.984615c-0.787692-0.590769-21.267692-15.36-20.676923-34.264616 0.393846-10.830769 7.483077-20.48 20.873846-28.553846l1.181539-0.787692 351.113846 2.363077 0.984615 0.590769c2.756923 1.378462 26.978462 13.193846 26.978462 31.113846 0 11.224615-9.058462 21.267692-26.978462 29.932308l-0.590769 0.590769z m-347.963077-10.633846h345.403077c12.996923-6.498462 19.889231-13.390769 19.889231-19.692308 0-9.058462-13.784615-18.116923-19.889231-21.070769l-345.796923-2.363077c-9.452308 5.907692-14.178462 12.406154-14.572308 19.101539-0.393846 10.830769 11.027692 21.070769 14.966154 24.024615z" fill="#493B4E" /><path d="M409.009231 352.098462h257.575384s44.701538 28.16 0 53.956923H409.009231s-41.353846-27.766154 0-53.956923z" fill="#493B4E" /><path d="M668.16 411.372308H407.433846l-1.378461-0.984616c-0.787692-0.590769-20.873846-14.178462-20.676923-33.083077 0.196923-11.027692 7.089231-21.070769 20.873846-29.735384l1.378461-0.787693h260.726154l1.378462 0.787693c0.984615 0.590769 22.646154 14.572308 22.44923 33.476923-0.196923 11.224615-7.876923 21.070769-22.44923 29.538461l-1.575385 0.787693z m-257.378462-10.633846h254.424616c10.436923-6.301538 15.950769-12.996923 15.950769-19.889231 0.196923-9.846154-10.633846-19.692308-16.147692-23.433846H410.584615c-9.649231 6.301538-14.572308 13.193846-14.572307 20.086153-0.196923 10.830769 11.027692 20.283077 14.76923 23.236924z" fill="#493B4E" /></svg>